<svg width="1145" height="1516" viewBox="0 0 1145 1516" fill="none" xmlns="http://www.w3.org/2000/svg">
<path d="M820.931 474.596C785.379 474.596 759.977 487.072 743.812 505.546C735.97 483.384 715.12 478.151 693.008 478.151C671.726 478.151 652.82 478.151 646.773 478.151H644.746H582.13V499.084C565.965 483.833 541.942 474.596 509.629 474.596C442.195 474.596 396.475 526.778 396.475 590.973C396.475 609.513 400.429 627.073 407.673 642.673C403.835 645.813 399.881 648.704 396.492 651.063L396.475 651.013C392.122 654.187 386.773 657.376 380.908 660.134C379.912 660.599 378.865 661.031 377.818 661.48C376.954 661.845 376.09 662.227 375.21 662.593C374.28 662.975 373.349 663.307 372.402 663.656C371.09 664.138 369.761 664.603 368.432 665.019C367.983 665.168 367.518 665.301 367.069 665.45C360.607 667.378 353.945 668.557 347.532 668.557C326.283 668.557 314.737 656.546 314.737 627.456V529.088H379.131V478.749H314.737V417.329H257.936L250.078 478.749H210.455V529.088H250.078V640.381C250.078 694.74 278.553 723.697 324.522 724.794L324.489 724.877C324.904 724.877 325.303 724.86 325.719 724.86C326.217 724.86 326.682 724.91 327.197 724.91C336.517 724.91 345.455 724.245 354.011 723.033C389.929 718.381 418.588 704.957 440.683 683.991C459.174 698.063 482.665 706.436 509.629 706.436C540.563 706.436 565.051 696.733 582.13 681.964V703.661C582.13 743.833 553.954 754.93 523.019 754.93C489.826 754.93 457.779 742.587 442.062 732.884L428.805 787.709C444.97 795.55 474.525 811.732 523.019 811.732C595.986 811.732 646.789 771.095 646.789 690.271V532.958C650.81 532.958 660.196 532.958 667.623 532.958C681.013 532.958 684.253 542.794 684.253 557.563V807.113H748.912V700.887C765.526 715.656 790.014 724.91 820.948 724.91C888.382 724.91 934.567 672.727 934.567 600.21C934.55 526.778 888.365 474.596 820.931 474.596ZM582.13 627.921C569.653 640.381 549.335 650.083 527.638 650.083C487.915 650.083 462.513 625.611 462.513 590.973C462.513 555.868 487.45 530.932 527.638 530.932C549.8 530.932 571.049 542.013 582.13 553.559V627.921ZM802.939 668.557C781.69 668.557 761.372 658.855 748.912 646.843V553.094C759.528 541.548 780.777 530.932 802.939 530.932C843.11 530.932 868.977 558.643 868.977 600.21C868.977 641.311 842.645 668.557 802.939 668.557Z" fill="#0083AD"/>
<path d="M1079.34 277.195C1043.5 219.995 995.439 172.829 936.461 137.011C890.409 80.4422 833.574 40.6032 767.503 18.5738C730.538 6.24664 691.679 0 651.989 0C518.966 0 380.393 70.1585 271.791 192.466C148.819 279.72 59.7378 401.231 20.9787 534.67C-18.1459 669.354 -2.19694 803.375 65.9015 912.077C96.0216 960.156 135.163 1001.42 182.212 1034.75C229.411 1096.22 288.721 1139.2 358.48 1162.46C395.445 1174.77 434.304 1181.01 473.977 1181.01C585.719 1181.01 702.029 1131.56 801.527 1041.74C814.435 1034.68 827.045 1027.34 838.99 1019.85C1118.38 844.792 1226.2 511.643 1079.34 277.195ZM227.666 1063.06L228.264 1063.39C230.324 1064.52 232.368 1065.63 234.444 1066.73C237.751 1068.48 241.09 1070.14 244.446 1071.8L246.522 1072.83C248.001 1073.56 249.48 1074.31 250.975 1075C254.663 1076.77 258.418 1078.44 262.172 1080.12L264.448 1081.15C265.578 1081.67 266.708 1082.18 267.854 1082.68C272.539 1084.71 277.49 1086.72 282.972 1088.88L285.082 1089.74C290.698 1091.93 296.678 1094.09 302.842 1096.2C303.689 1096.49 304.536 1096.77 305.384 1097.03L307.261 1097.65C311.747 1099.14 316.266 1100.62 320.818 1101.98C322.163 1102.4 323.526 1102.78 324.871 1103.16L327.164 1103.81C331.135 1104.96 335.105 1106.09 339.109 1107.13C340.787 1107.57 342.482 1108 344.16 1108.41L346.22 1108.93C350.057 1109.88 353.878 1110.81 357.733 1111.67C360.225 1112.22 362.717 1112.75 365.242 1113.26C369.046 1114.06 372.851 1114.83 376.689 1115.56C379.264 1116.04 381.839 1116.5 384.414 1116.94C388.251 1117.6 392.106 1118.22 395.977 1118.8C398.568 1119.2 401.177 1119.58 403.785 1119.93C407.722 1120.46 411.676 1120.94 415.63 1121.39L416.843 1121.54C419.02 1121.79 421.179 1122.04 423.372 1122.27C427.492 1122.68 431.646 1123.02 435.816 1123.35L437.909 1123.52C439.653 1123.67 441.398 1123.8 443.159 1123.93C447.727 1124.23 452.329 1124.45 456.948 1124.65L459.374 1124.78C460.636 1124.84 461.899 1124.91 463.161 1124.94C470.122 1125.16 476.635 1125.29 483.363 1125.29C489.593 1125.26 495.956 1125.19 502.552 1124.98C503.881 1124.93 505.21 1124.88 506.556 1124.81L509.181 1124.68C513.367 1124.5 517.554 1124.31 521.757 1124.05C523.717 1123.93 525.694 1123.76 527.655 1123.63L529.615 1123.48C533.403 1123.18 537.207 1122.9 540.995 1122.54C543.504 1122.3 545.996 1122.04 548.505 1121.77L549.302 1121.69C552.957 1121.29 556.612 1120.89 560.283 1120.43C563.108 1120.08 565.915 1119.71 568.74 1119.31C572.378 1118.81 576 1118.27 579.688 1117.7C582.479 1117.25 585.253 1116.84 588.044 1116.36C591.749 1115.72 595.421 1115.04 599.109 1114.36L601.036 1114C603.113 1113.61 605.19 1113.23 607.266 1112.82C611.187 1112.04 615.091 1111.17 618.979 1110.32L621.537 1109.78C623.149 1109.43 624.76 1109.09 626.372 1108.71C631.256 1107.58 636.107 1106.37 640.975 1105.12L642.885 1104.66C643.716 1104.46 644.563 1104.26 645.394 1104.03C651.458 1102.45 657.771 1100.69 664.167 1098.79C665.43 1098.43 666.692 1098.03 667.955 1097.65L670.447 1096.87C674.65 1095.59 678.87 1094.31 683.057 1092.93C684.851 1092.35 686.645 1091.73 688.439 1091.12L690.549 1090.4C694.337 1089.13 698.108 1087.83 701.88 1086.5C704.089 1085.7 706.282 1084.89 708.492 1084.08L709.671 1083.63C713.326 1082.26 716.981 1080.89 720.619 1079.47C723.228 1078.44 725.836 1077.4 728.444 1076.35C732.083 1074.87 735.688 1073.38 739.293 1071.83C741.851 1070.75 744.41 1069.65 746.952 1068.54C748.729 1067.76 750.49 1066.98 752.251 1066.17C665.081 1132.2 566.862 1168.39 473.96 1168.39C435.633 1168.39 398.12 1162.36 362.467 1150.48C307.56 1132.17 259.182 1101.07 218.479 1057.94C221.519 1059.67 224.593 1061.38 227.666 1063.06ZM790.479 1033.29L785.395 1035.96C782.288 1037.61 779.182 1039.27 776.042 1040.85C774.281 1041.74 772.503 1042.59 770.742 1043.46L764.911 1046.3C762.402 1047.54 759.894 1048.77 757.385 1049.95C755.076 1051.05 752.733 1052.08 750.407 1053.11L744.111 1055.95C742.25 1056.8 740.406 1057.64 738.529 1058.44C735.09 1059.94 731.651 1061.35 728.195 1062.74L723.311 1064.77C722.048 1065.3 720.786 1065.83 719.506 1066.35C714.24 1068.44 708.957 1070.44 703.657 1072.38L700.335 1073.64C694.021 1075.93 687.559 1078.16 681.013 1080.32C615.789 1101.79 549.302 1112.65 483.38 1112.65C449.19 1112.63 415.464 1109.71 383.035 1103.9C377.685 1102.93 372.004 1101.8 365.624 1100.44L363.763 1100.07C358.58 1098.94 353.446 1097.68 348.313 1096.42L346.568 1096C345.97 1095.87 345.372 1095.74 344.791 1095.57C340.039 1094.34 335.354 1093 330.669 1091.65L328.676 1091.1C327.829 1090.87 326.981 1090.64 326.151 1090.39C321.997 1089.14 317.894 1087.8 313.807 1086.45L310.7 1085.45C309.753 1085.16 308.806 1084.86 307.859 1084.54C304.586 1083.43 301.347 1082.23 298.124 1081.02L293.439 1079.31C292.259 1078.89 291.063 1078.46 289.9 1078.01C286.943 1076.88 284.036 1075.67 281.128 1074.46L276.344 1072.5C274.998 1071.96 273.652 1071.42 272.323 1070.83C269.665 1069.69 267.057 1068.48 264.448 1067.26L259.448 1064.97C258.002 1064.32 256.557 1063.67 255.128 1062.99C252.719 1061.83 250.36 1060.62 248.001 1059.4L242.768 1056.75C241.289 1056.02 239.794 1055.27 238.349 1054.5C236.056 1053.27 233.797 1052.01 231.52 1050.72L226.42 1047.87C224.942 1047.04 223.446 1046.23 221.984 1045.37C219.775 1044.09 217.598 1042.72 215.439 1041.36L210.554 1038.36C209.059 1037.44 207.547 1036.54 206.069 1035.58C203.926 1034.2 201.816 1032.76 199.706 1031.33L194.888 1028.07C193.625 1027.22 192.346 1026.38 191.083 1025.51C188.11 1021.59 185.103 1017.49 182.162 1013.34C181.614 1012.55 181.066 1011.74 180.517 1010.94L179.471 1009.43C177.361 1006.36 175.268 1003.28 173.224 1000.16C172.377 998.848 171.529 997.536 170.699 996.207L170.067 995.21C168.24 992.319 166.429 989.412 164.668 986.471C163.621 984.744 162.608 983.016 161.595 981.288C159.834 978.248 158.106 975.191 156.411 972.117L155.68 970.805C155.016 969.625 154.351 968.413 153.703 967.216C151.743 963.578 149.849 959.89 147.988 956.185L146.327 952.896C143.918 948.028 141.575 943.061 139.349 938.143L138.053 935.169C136.292 931.165 134.565 927.178 132.887 923.108C132.405 921.928 131.94 920.749 131.458 919.569L130.876 918.074C129.498 914.635 128.152 911.163 126.839 907.674C126.158 905.83 125.477 904.002 124.813 902.142C123.567 898.669 122.354 895.181 121.174 891.675L120.809 890.595C120.327 889.167 119.845 887.738 119.38 886.292C118.117 882.405 116.905 878.484 115.725 874.563L115.193 872.802C114.944 871.972 114.678 871.141 114.446 870.31C112.868 864.911 111.356 859.445 109.944 853.963L109.661 852.8C108.531 848.347 107.435 843.845 106.405 839.326C122.453 880.478 145.43 917.542 174.919 949.772C245.576 1027.01 348.23 1069.54 463.992 1069.54C599.059 1069.54 739.974 1011.47 850.586 910.249C913.8 852.418 964.172 783.406 997.831 708.878L997.814 708.894L996.053 714.31C994.026 720.441 991.95 726.571 989.773 732.685C987.165 739.978 984.407 747.354 981.583 754.581C981.168 755.645 980.736 756.675 980.304 757.721L979.124 760.612C977.047 765.795 974.971 770.979 972.795 776.112C972.296 777.275 971.781 778.422 971.283 779.568L969.522 783.572C967.511 788.174 965.518 792.776 963.425 797.311C962.926 798.407 962.411 799.487 961.879 800.567L960.268 803.94C958.042 808.691 955.816 813.426 953.49 818.111C952.892 819.307 952.277 820.487 951.662 821.683L949.768 825.371C947.542 829.774 945.316 834.176 942.99 838.529C942.392 839.625 941.794 840.722 941.179 841.818L939.053 845.673C936.71 849.976 934.368 854.262 931.942 858.515C931.261 859.678 930.58 860.841 929.882 862.004L927.324 866.34C925.031 870.26 922.722 874.198 920.363 878.052C919.665 879.199 918.934 880.328 918.22 881.458L915.611 885.595C913.186 889.466 910.76 893.337 908.268 897.141C907.504 898.321 906.706 899.484 905.909 900.63L902.918 905.066C900.526 908.654 898.117 912.243 895.658 915.765C894.794 916.994 893.897 918.207 893.017 919.436L889.678 924.071C887.318 927.377 884.959 930.667 882.534 933.907C881.587 935.202 880.607 936.448 879.61 937.711L875.822 942.629C873.546 945.619 871.253 948.626 868.911 951.55C867.864 952.862 866.801 954.158 865.721 955.438L861.75 960.272C859.458 963.096 857.165 965.921 854.806 968.695C853.61 970.107 852.38 971.486 851.151 972.865L846.931 977.683C844.705 980.241 842.495 982.783 840.236 985.292C838.94 986.721 837.611 988.116 836.282 989.528L831.614 994.512C829.487 996.822 827.361 999.098 825.184 1001.36C823.706 1002.87 822.211 1004.36 820.699 1005.84L815.632 1010.93C813.671 1012.9 811.694 1014.9 809.701 1016.82C808.039 1018.44 806.345 1020 804.65 1021.58L799.4 1026.49C797.656 1028.15 795.895 1029.8 794.134 1031.41C792.904 1032.03 791.692 1032.66 790.479 1033.29ZM902.686 118.404C899.845 116.992 897.004 115.629 894.13 114.267L892.95 113.686C891.189 112.855 889.445 112.008 887.667 111.21C884.66 109.831 881.62 108.519 878.596 107.206L876.985 106.509C875.456 105.827 873.928 105.18 872.366 104.532C868.994 103.119 865.571 101.79 862.166 100.445L860.139 99.6473C859.026 99.1987 857.913 98.7668 856.8 98.3348C851.683 96.4077 846.533 94.547 841.349 92.7859L840.053 92.354C835.036 90.6594 829.969 89.0479 824.885 87.4863C823.739 87.1374 822.559 86.8051 821.396 86.4728L819.237 85.8415C815.665 84.8115 812.11 83.7648 808.504 82.8013C806.926 82.3859 805.331 81.9872 803.753 81.5885L801.826 81.1067C798.503 80.2594 795.197 79.4287 791.858 78.6479C789.765 78.1495 787.655 77.6843 785.545 77.2358L784.731 77.053C781.491 76.3387 778.251 75.6409 774.979 74.9763C772.536 74.4946 770.078 74.0294 767.619 73.5808C764.363 72.9827 761.106 72.4013 757.834 71.8364C755.342 71.4211 752.866 71.0223 750.358 70.6402C747.068 70.1418 743.762 69.6601 740.456 69.2115C737.964 68.8792 735.472 68.547 732.98 68.2313C729.591 67.816 726.202 67.4505 722.796 67.1016L721.55 66.9687C719.506 66.7527 717.48 66.5367 715.436 66.354C711.864 66.0217 708.292 65.7725 704.721 65.5067L702.428 65.3406C700.866 65.2243 699.304 65.108 697.743 65.0083C693.789 64.7757 689.802 64.6096 685.814 64.4434L683.472 64.3438C682.292 64.2939 681.096 64.2275 679.9 64.1942C673.936 64.0281 667.938 63.9118 661.924 63.9118C544.119 63.9118 425.864 97.637 319.023 161.582C419.352 65.3738 536.991 12.6096 652.006 12.6096C690.35 12.6096 727.863 18.6402 763.515 30.5355C816.429 48.1789 863.395 77.784 903.234 118.636C903.035 118.57 902.852 118.487 902.686 118.404ZM299.12 189.077C301.031 187.815 302.942 186.552 304.852 185.323C307.577 183.562 310.285 181.834 312.976 180.156C387.321 133.572 466.916 102.222 549.535 86.9712C592.929 78.9636 637.187 75.5246 680.232 76.8869C681.528 76.9201 682.807 77.0032 684.103 77.0696L688.954 77.2856C692.111 77.4185 695.267 77.5348 698.424 77.7342C699.853 77.8338 701.281 77.9502 702.71 78.0665L708.625 78.5316C711.233 78.731 713.841 78.9137 716.433 79.1629C718.011 79.3124 719.589 79.4952 721.151 79.6779L726.501 80.276C729.092 80.5418 731.684 80.8243 734.259 81.1565C735.92 81.3725 737.582 81.6217 739.243 81.8709L744.692 82.6517C747.101 82.984 749.494 83.3163 751.869 83.6984C753.614 83.9808 755.342 84.2965 757.069 84.5955L762.635 85.5757C764.844 85.9578 767.071 86.3399 769.28 86.7719C771.074 87.1207 772.869 87.5029 774.646 87.9016L780.029 89.0313C782.172 89.4632 784.332 89.9118 786.475 90.4102C788.203 90.8089 789.914 91.2409 791.642 91.6562L797.257 93.0351C799.317 93.5335 801.377 94.0319 803.421 94.5636C805.248 95.0453 807.042 95.5604 808.853 96.092L814.386 97.6537C816.296 98.1853 818.223 98.7169 820.117 99.2818C821.995 99.8466 823.855 100.461 825.716 101.059L831.165 102.804C832.959 103.369 834.77 103.934 836.548 104.532C838.492 105.196 840.435 105.894 842.363 106.592L847.679 108.502C849.357 109.084 851.035 109.682 852.68 110.313C854.64 111.061 856.584 111.841 858.527 112.622L863.761 114.716C865.339 115.33 866.934 115.962 868.495 116.61C870.672 117.523 872.815 118.487 874.958 119.434L879.809 121.577C881.205 122.192 882.617 122.79 884.012 123.438C886.355 124.534 888.681 125.664 890.99 126.794L895.393 128.92C896.672 129.535 897.934 130.15 899.197 130.781C901.623 132.01 904.015 133.306 906.424 134.585L910.644 136.845C911.773 137.443 912.92 138.041 914.05 138.656C916.625 140.084 919.15 141.563 921.675 143.042L925.313 145.151C926.21 145.666 927.124 146.181 928.005 146.713C929.6 148.707 931.161 150.75 932.723 152.794L935.348 156.183C936.112 157.163 936.876 158.126 937.607 159.123C940.863 163.509 944.07 168.011 947.143 172.497C947.625 173.211 948.09 173.926 948.555 174.657L949.752 176.484C951.945 179.757 954.138 183.047 956.264 186.403C956.978 187.532 957.66 188.679 958.341 189.842L960.6 193.58C962.046 195.955 963.508 198.331 964.903 200.757C965.651 202.069 966.398 203.415 967.129 204.76L969.372 208.814C970.618 211.04 971.864 213.283 973.077 215.559C973.858 217.021 974.605 218.516 975.336 219.995L977.446 224.165C978.559 226.341 979.672 228.534 980.752 230.76C981.516 232.339 982.248 233.95 982.979 235.562L984.873 239.665C985.903 241.908 986.933 244.118 987.929 246.377C988.677 248.072 989.391 249.783 990.106 251.51L991.784 255.531C992.747 257.807 993.694 260.083 994.625 262.392C995.356 264.27 996.07 266.147 996.784 268.041L998.147 271.646C999.044 274.022 999.958 276.397 1000.82 278.806C1001.52 280.783 1002.2 282.777 1002.88 284.787L1004.04 288.226C1004.87 290.668 1005.72 293.127 1006.5 295.586C1007.17 297.629 1007.78 299.673 1008.41 301.733L1009.39 304.972C1010.17 307.548 1010.96 310.123 1011.7 312.714C1012.35 314.99 1012.97 317.283 1013.58 319.576L1014.16 321.785C1014.91 324.576 1015.66 327.367 1016.37 330.192C1017.02 332.783 1017.63 335.392 1018.25 338.017L1018.41 338.731C1019.15 341.804 1019.86 344.878 1020.52 347.985C1021.12 350.759 1021.69 353.55 1022.32 356.723C1022.95 359.83 1023.57 362.953 1024.15 366.093C1024.26 366.741 1024.38 367.406 1024.5 368.07C1008.46 320.174 983.427 277.444 949.851 240.745C879.195 163.509 776.54 120.979 660.778 120.979C525.727 120.979 384.813 179.043 274.167 280.268C207.016 341.721 154.6 415.369 121.075 495.047L121.224 494.498C121.706 492.771 122.188 491.043 122.703 489.315C123.965 485.062 125.328 480.792 126.673 476.556L127.853 472.818C128.268 471.489 128.684 470.16 129.115 468.831C131.375 461.919 133.734 455.041 136.11 448.363C138.17 442.631 140.296 436.916 142.473 431.234C143.835 427.696 145.247 424.174 146.659 420.668L148.071 417.13C148.437 416.183 148.819 415.236 149.201 414.289C150.331 411.564 151.494 408.856 152.657 406.148L154.767 401.197C155.282 399.951 155.797 398.722 156.345 397.493C157.425 395.017 158.554 392.558 159.684 390.1L161.944 385.132C162.575 383.72 163.206 382.291 163.871 380.879C164.884 378.703 165.947 376.526 166.994 374.367L169.602 368.967C170.317 367.472 171.031 365.977 171.762 364.498C172.659 362.671 173.606 360.86 174.536 359.033L177.377 353.484C178.241 351.756 179.122 350.028 180.019 348.3C180.833 346.739 181.68 345.194 182.511 343.665L185.319 338.432C186.415 336.388 187.495 334.362 188.608 332.351C189.339 331.056 190.07 329.776 190.801 328.497L193.542 323.663C194.871 321.32 196.2 318.961 197.563 316.652C198.211 315.555 198.875 314.442 199.54 313.346L202.231 308.86C203.76 306.302 205.288 303.743 206.833 301.218C207.481 300.171 208.145 299.125 208.81 298.078L211.352 294.041C213.03 291.366 214.708 288.691 216.436 286.05C217.05 285.103 217.682 284.172 218.296 283.242L220.871 279.371C222.682 276.63 224.51 273.872 226.37 271.164C227.002 270.234 227.65 269.32 228.298 268.406L230.64 265.067C232.617 262.226 234.594 259.385 236.604 256.594C237.252 255.697 237.917 254.8 238.581 253.903L240.924 250.746C242.984 247.922 245.06 245.098 247.154 242.323C247.835 241.426 248.549 240.529 249.23 239.649L251.706 236.459C253.799 233.767 255.876 231.059 257.986 228.401C258.783 227.388 259.597 226.408 260.411 225.427L263.402 221.789C265.296 219.447 267.189 217.121 269.117 214.828C270.047 213.715 270.994 212.618 271.941 211.522L275.098 207.867C276.792 205.89 278.487 203.913 280.198 201.986L292.143 193.729C293.605 192.732 295.083 191.735 296.545 190.755L299.12 189.077ZM940.581 249.234C1094.77 417.794 1050.58 710.141 842.08 900.912C733.744 1000.04 595.952 1056.88 464.009 1056.88C351.851 1056.88 252.503 1015.81 184.272 941.216C30.0663 772.673 74.2579 480.327 282.773 289.539C391.109 190.406 528.917 133.572 660.844 133.572C773.002 133.572 872.333 174.657 940.581 249.234ZM235.225 237.273C232.6 240.762 229.992 244.267 227.417 247.806C226.536 249.018 225.673 250.231 224.809 251.444L223.646 253.089C221.602 255.963 219.576 258.837 217.565 261.728C216.402 263.406 215.256 265.1 214.126 266.778L213.561 267.609C211.684 270.4 209.807 273.191 207.963 275.999C206.634 278.009 205.321 280.036 204.009 282.079C202.181 284.92 200.37 287.778 198.576 290.652C197.314 292.645 196.068 294.656 194.822 296.682C192.944 299.739 191.117 302.813 189.273 305.886L188.209 307.68C187.462 308.943 186.698 310.206 185.967 311.468C183.774 315.24 181.63 319.027 179.487 322.832L177.427 326.47C174.653 331.471 171.945 336.521 169.27 341.605L166.944 346.141C165.067 349.779 163.19 353.417 161.362 357.089C160.664 358.484 159.983 359.88 159.319 361.275L158.488 363.003C156.893 366.259 155.315 369.532 153.77 372.822C152.773 374.932 151.793 377.041 150.813 379.168C149.351 382.374 147.889 385.581 146.46 388.82C145.496 390.964 144.549 393.123 143.602 395.3C142.19 398.572 140.795 401.845 139.416 405.151L139.067 405.982C138.286 407.826 137.522 409.654 136.774 411.498C135.329 415.053 133.917 418.608 132.521 422.18L131.74 424.157C131.259 425.37 130.777 426.566 130.328 427.779C128.384 432.829 126.507 437.896 124.68 442.997L123.317 446.851C121.324 452.5 119.363 458.148 117.503 463.813C116.971 465.425 116.473 467.036 115.974 468.648L114.313 473.914C113.283 477.171 112.236 480.41 111.273 483.65C110.675 485.61 110.11 487.587 109.561 489.548L108.083 494.714C107.236 497.638 106.388 500.579 105.591 503.503C104.976 505.729 104.411 507.939 103.83 510.165L102.683 514.601C101.919 517.508 101.172 520.432 100.457 523.339C99.8759 525.715 99.3276 528.107 98.7794 530.483L97.8823 534.337C97.2011 537.278 96.5199 540.218 95.872 543.176C95.2739 545.884 94.7257 548.592 94.1774 551.3L93.7289 553.459C93.081 556.649 92.433 559.822 91.8183 562.995C91.2203 566.102 90.672 569.192 90.074 572.615C89.4759 576.02 88.8778 579.393 88.3296 582.799C87.7979 586.022 87.2995 589.245 86.8177 592.468C86.3193 595.824 85.8209 599.163 85.3557 602.519C84.9071 605.758 84.5084 609.015 84.0931 612.254C83.6777 615.577 83.2957 618.9 82.9302 622.206C82.5647 625.445 82.249 628.701 81.9333 631.941C81.6177 635.231 81.3187 638.52 81.0529 641.81C80.7871 645.049 80.5378 648.289 80.3053 651.528C80.0727 654.801 79.8899 658.074 79.7072 661.33C79.5244 664.553 79.3582 667.776 79.2253 670.999C79.0924 674.255 78.9927 677.495 78.9097 680.751C78.81 683.958 78.7269 687.164 78.6771 690.354C78.6272 693.577 78.6273 696.8 78.6273 700.023V701.036C78.6273 703.894 78.6273 706.735 78.6605 709.559C78.7104 712.632 78.7935 715.689 78.8765 718.746L78.9263 720.374C78.9928 723.132 79.0759 725.89 79.1922 728.631C79.3085 731.339 79.458 734.031 79.6075 736.722L79.8069 740.244C79.9398 742.669 80.0726 745.095 80.2387 747.521C80.4215 749.996 80.6209 752.455 80.8369 754.914L81.2356 759.499C81.4184 761.742 81.6011 764.001 81.8337 766.244C82.0662 768.62 82.3487 770.995 82.6145 773.354L83.196 778.455C83.4286 780.565 83.6612 782.658 83.9436 784.751C84.2592 787.243 84.6247 789.719 84.9902 792.194L85.7378 797.444C86.0036 799.321 86.2694 801.199 86.5684 803.076C87.2496 807.279 87.9972 811.466 88.7614 815.619L88.8446 816.051C89.5922 820.171 90.4062 824.291 91.2369 828.378L91.7353 830.854C92.2669 833.462 92.7819 836.087 93.3634 838.678C93.7787 840.523 94.2106 842.367 94.6758 844.194L95.872 849.245C96.4369 851.604 96.9851 853.963 97.5831 856.305C98.0815 858.249 98.6132 860.176 99.1448 862.087L100.374 866.572C101.022 868.931 101.654 871.307 102.335 873.65C102.916 875.66 103.531 877.637 104.145 879.63L105.358 883.568C106.089 885.96 106.837 888.352 107.601 890.745C108.299 892.871 109.03 894.998 109.761 897.124L110.791 900.131C111.638 902.59 112.485 905.066 113.383 907.524C114.246 909.884 115.127 912.226 116.024 914.569L116.589 916.08C117.602 918.738 118.616 921.38 119.679 924.022C120.676 926.497 121.706 928.939 122.736 931.381L122.952 931.88C124.115 934.654 125.294 937.429 126.507 940.17C127.637 942.745 128.816 945.303 129.996 947.845C131.259 950.57 132.538 953.294 133.85 956.002C135.08 958.511 136.309 961.003 137.588 963.478C138.951 966.153 140.313 968.811 141.725 971.453C143.021 973.895 144.35 976.321 145.679 978.73C147.141 981.354 148.62 983.963 150.115 986.555C151.494 988.914 152.873 991.273 154.285 993.615C155.564 995.758 156.876 997.852 158.189 999.962C126.275 972.583 98.8957 940.801 76.6669 905.348C-50.5586 702.249 18.4867 417.113 236.521 235.545L235.225 237.273ZM846.101 997.486C848.161 995.243 850.221 993 852.264 990.724C855.039 987.601 857.796 984.478 860.521 981.321L861.186 980.557C862.93 978.547 864.674 976.537 866.386 974.493C869.16 971.204 871.885 967.848 874.626 964.492L876.221 962.531C877.5 960.953 878.779 959.375 880.058 957.797C882.982 954.108 885.84 950.354 888.714 946.599L890.392 944.406C891.356 943.16 892.319 941.914 893.266 940.652C897.154 935.435 900.958 930.152 904.729 924.819L906.009 923.058C909.996 917.376 914.099 911.312 918.236 905.032C918.984 903.886 919.715 902.74 920.446 901.577L921.991 899.151C924.682 894.965 927.373 890.778 929.998 886.542C931.012 884.914 931.992 883.252 932.989 881.607L934.418 879.232C936.743 875.377 939.053 871.523 941.312 867.602C942.625 865.343 943.92 863.05 945.2 860.758L945.814 859.694C947.958 855.89 950.067 852.069 952.144 848.231C953.623 845.49 955.085 842.732 956.53 839.974C958.54 836.137 960.534 832.299 962.477 828.411C963.89 825.62 965.285 822.813 966.681 820.005C968.608 816.068 970.502 812.08 972.379 808.093L972.678 807.445C973.891 804.887 975.087 802.328 976.267 799.737C978.161 795.567 980.005 791.363 981.832 787.16L982.812 784.917C983.643 782.99 984.49 781.08 985.304 779.136C987.265 774.484 989.159 769.783 991.036 765.098L992.116 762.423C992.681 761.027 993.262 759.632 993.794 758.236C996.701 750.777 999.293 743.849 1001.73 737.021C1041.01 627.24 1055.25 512.64 1042.94 405.583C1042.24 399.569 1041.44 393.489 1040.49 386.976C1040.31 385.73 1040.11 384.501 1039.91 383.288L1039.51 380.829C1038.88 376.742 1038.23 372.672 1037.54 368.635C1037.24 366.941 1036.91 365.229 1036.59 363.551L1036.17 361.392C1035.49 357.753 1034.8 354.148 1034.06 350.543C1033.65 348.533 1033.2 346.539 1032.77 344.546L1032.42 343.017C1031.67 339.578 1030.89 336.139 1030.08 332.75C1029.46 330.208 1028.83 327.666 1028.18 325.141C1027.34 321.818 1026.47 318.496 1025.58 315.223C1024.89 312.714 1024.18 310.206 1023.47 307.697C1022.52 304.424 1021.54 301.168 1020.54 297.928C1019.79 295.486 1019.03 293.044 1018.25 290.618C1017.2 287.362 1016.11 284.123 1014.99 280.9L1014.63 279.836C1013.93 277.859 1013.26 275.866 1012.55 273.905C1011.35 270.599 1010.11 267.326 1008.85 264.054L1008.1 262.11C1007.53 260.598 1006.95 259.07 1006.35 257.574C1004.92 254.019 1003.45 250.514 1001.97 247.025L1001.1 244.948C1000.64 243.835 1000.17 242.722 999.692 241.626C997.582 236.824 995.405 232.073 993.163 227.371L992.548 226.042C990.156 221.041 987.564 215.941 984.889 210.841C984.407 209.927 983.909 209.013 983.411 208.1L982.447 206.355C980.586 202.9 978.709 199.461 976.782 196.072C976.067 194.826 975.336 193.596 974.605 192.367L973.559 190.589C971.798 187.599 970.02 184.608 968.193 181.668C967.279 180.206 966.348 178.76 965.418 177.332L964.554 175.986C962.777 173.211 960.982 170.454 959.138 167.712C958.922 167.413 958.723 167.114 958.523 166.815C1002.86 198.73 1039.86 238.087 1068.6 283.973C1210.5 510.48 1107.65 832.033 839.555 1004.55C841.748 1002.17 843.941 999.845 846.101 997.486Z" fill="url(#paint0_linear)"/>
<path d="M162.857 1386.03C162.857 1387.45 162.342 1388.07 161.013 1388.07H155.182C153.853 1388.07 153.338 1387.45 153.338 1386.03V1325.02H133.584C132.355 1325.02 131.94 1324.61 131.94 1323.38V1319.07C131.94 1317.84 132.355 1317.54 133.468 1317.54H183.508C184.837 1317.54 185.252 1318.16 185.152 1319.19L184.538 1323.38C184.338 1324.81 183.408 1325.02 181.979 1325.02H162.841V1386.03H162.857Z" fill="#0083AD"/>
<path d="M219.808 1359.41H209.99V1385.92C209.99 1387.25 209.375 1388.07 208.046 1388.07H202.414C201.085 1388.07 200.47 1387.35 200.47 1385.92V1319.8C200.47 1318.16 200.985 1317.56 202.514 1317.56H217.25C226.453 1317.56 234.345 1319.4 238.847 1324.94C241.605 1328.31 243.05 1332.81 243.05 1338.24C243.05 1348.06 236.804 1355.02 228.729 1357.8L228.829 1358L245.509 1385.94C246.124 1386.85 245.924 1388.08 244.479 1388.08H238.332C236.804 1388.08 235.873 1387.57 235.159 1386.26L219.808 1359.41ZM216.535 1324.82H209.99V1352.25H217.864C226.869 1352.25 233.414 1347.43 233.414 1338.33C233.414 1328.29 227.068 1324.82 216.535 1324.82Z" fill="#0083AD"/>
<path d="M308.74 1386.22L301.995 1367.19H275.48L268.419 1386.32C267.904 1387.65 267.489 1388.05 266.06 1388.05H260.013C258.584 1388.05 258.783 1386.92 259.099 1386.01L284.783 1318.97C285.082 1318.16 285.697 1317.54 286.627 1317.54H292.06C292.99 1317.54 293.588 1317.96 293.904 1318.77L319.189 1385.91C319.605 1387.02 319.605 1388.05 317.86 1388.05H311.514C309.753 1388.07 309.255 1387.75 308.74 1386.22ZM299.519 1360.13L291.329 1336.68C290.099 1333.1 289.385 1330.85 288.97 1329.42H288.887L286.328 1336.9L277.938 1360.13H299.519Z" fill="#0083AD"/>
<path d="M390.046 1385.92C390.046 1387.65 389.531 1388.07 388.301 1388.07H383.6C382.37 1388.07 381.556 1387.55 380.526 1386.12L343.578 1334.34H343.378V1385.92C343.378 1387.35 342.664 1388.07 341.335 1388.07H336.633C335.205 1388.07 334.59 1387.45 334.59 1385.92V1319.7C334.59 1318.17 335.304 1317.56 336.633 1317.56H340.72C341.95 1317.56 342.564 1317.86 343.378 1319.09L381.041 1372H381.257V1319.7C381.257 1318.06 381.872 1317.56 383.201 1317.56H388.118C389.647 1317.56 390.062 1318.17 390.062 1319.7V1385.92H390.046Z" fill="#0083AD"/>
<path d="M441.68 1369.64C441.68 1363.91 437.693 1360.64 432.676 1357.98L419.684 1351.02C412.922 1347.33 408.42 1341.82 408.42 1334.44C408.42 1322.66 419.368 1316.31 430.117 1316.31C436.148 1316.31 441.065 1317.13 446.382 1319.39C447.412 1319.8 448.026 1320.32 448.026 1321.13C448.026 1321.43 447.927 1321.75 447.827 1322.06L446.299 1326.27C445.983 1327.08 445.485 1327.4 444.87 1327.4C444.455 1327.4 444.056 1327.3 443.641 1327.1C439.554 1325.35 434.736 1324.12 430.649 1324.12C424.917 1324.12 418.255 1326.78 418.255 1333.64C418.255 1338.96 421.943 1341.93 426.246 1344.18L437.195 1350.01C445.169 1354.29 451.117 1359.43 451.117 1368.93C451.117 1382.34 439.952 1389.08 427.376 1389.08C421.844 1389.08 415.813 1388.05 410.181 1386.22C408.852 1385.81 408.536 1384.78 408.852 1383.67L410.181 1379.06C410.597 1377.73 411.61 1377.53 412.839 1378.05C417.441 1379.79 422.558 1381.02 427.376 1381.02C434.32 1381.01 441.68 1377.73 441.68 1369.64Z" fill="#0083AD"/>
<path d="M504.745 1325.02H477.831V1347.43H501.887C503.316 1347.43 503.931 1348.05 503.931 1349.28V1352.96C503.931 1354.41 503.416 1354.81 501.987 1354.81H477.831V1385.92C477.831 1387.65 477.316 1388.07 475.788 1388.07H470.471C468.826 1388.07 468.328 1387.77 468.328 1385.82V1319.6C468.328 1318.17 468.843 1317.56 470.272 1317.56H506.29C507.519 1317.56 508.034 1318.27 507.934 1319.4L507.519 1323.39C507.403 1324.82 506.489 1325.02 504.745 1325.02Z" fill="#0083AD"/>
<path d="M550.415 1389.08C532.09 1389.08 521.341 1375.38 521.341 1353.06C521.341 1330.85 533.519 1316.31 551.329 1316.31C570.152 1316.31 580.485 1331.05 580.485 1352.33C580.502 1375.57 567.493 1389.08 550.415 1389.08ZM551.129 1324.21C539.367 1324.21 531.376 1335.87 531.376 1352.76C531.376 1370.67 538.536 1381.32 550.83 1381.32C562.393 1381.32 570.384 1370.26 570.384 1352.66C570.368 1334.64 563.606 1324.21 551.129 1324.21Z" fill="#0083AD"/>
<path d="M618.314 1359.41H608.495V1385.92C608.495 1387.25 607.881 1388.07 606.552 1388.07H600.92C599.591 1388.07 598.976 1387.35 598.976 1385.92V1319.8C598.976 1318.16 599.491 1317.56 601.019 1317.56H615.756C624.959 1317.56 632.851 1319.4 637.353 1324.94C640.111 1328.31 641.556 1332.81 641.556 1338.24C641.556 1348.06 635.31 1355.02 627.219 1357.8L627.318 1358L643.998 1385.94C644.613 1386.85 644.414 1388.08 642.968 1388.08H636.821C635.293 1388.08 634.363 1387.57 633.648 1386.26L618.314 1359.41ZM615.041 1324.82H608.495V1352.25H616.37C625.375 1352.25 631.92 1347.43 631.92 1338.33C631.937 1328.29 625.591 1324.82 615.041 1324.82Z" fill="#0083AD"/>
<path d="M729.242 1388.07H723.411C721.965 1388.07 721.566 1387.45 721.467 1385.73L719.739 1336.18H719.54L699.786 1386.86C699.371 1387.87 698.756 1388.08 697.942 1388.08H694.453C693.44 1388.08 692.925 1387.89 692.41 1386.66L671.012 1336.2H670.912L669.683 1386.26C669.683 1387.69 669.168 1388.08 667.639 1388.08H662.622C661.293 1388.08 660.778 1387.69 660.778 1386.36V1386.16L663.137 1319.74C663.237 1318.01 663.652 1317.59 664.782 1317.59H669.184C670.829 1317.59 671.328 1318.01 671.843 1319.12L696.713 1374.89H696.812L719.739 1319.22C720.254 1317.99 720.769 1317.58 721.982 1317.58H726.7C727.929 1317.58 728.228 1318.09 728.328 1319.42L731.103 1385.96V1386.26C731.086 1387.65 730.571 1388.07 729.242 1388.07Z" fill="#0083AD"/>
<path d="M796.078 1386.22L789.332 1367.19H762.817L755.757 1386.32C755.242 1387.65 754.826 1388.05 753.398 1388.05H747.367C745.938 1388.05 746.138 1386.92 746.453 1386.01L772.138 1318.97C772.437 1318.16 773.051 1317.54 773.965 1317.54H779.398C780.328 1317.54 780.943 1317.96 781.242 1318.77L806.527 1385.91C806.943 1387.02 806.943 1388.05 805.198 1388.05H798.852C797.091 1388.07 796.593 1387.75 796.078 1386.22ZM786.874 1360.13L778.683 1336.68C777.454 1333.1 776.739 1330.85 776.324 1329.42H776.224L773.666 1336.9L765.276 1360.13H786.874Z" fill="#0083AD"/>
<path d="M877.384 1385.92C877.384 1387.65 876.869 1388.07 875.656 1388.07H870.954C869.725 1388.07 868.911 1387.55 867.881 1386.12L830.933 1334.34H830.717V1385.92C830.717 1387.35 830.002 1388.07 828.673 1388.07H823.971C822.526 1388.07 821.928 1387.45 821.928 1385.92V1319.7C821.928 1318.17 822.642 1317.56 823.971 1317.56H828.058C829.288 1317.56 829.903 1317.86 830.717 1319.09L868.379 1372H868.595V1319.7C868.595 1318.06 869.21 1317.56 870.539 1317.56H875.456C876.985 1317.56 877.4 1318.17 877.4 1319.7V1385.92H877.384Z" fill="#0083AD"/>
<path d="M944.651 1380.59C938.82 1385.92 929.716 1388.05 919.482 1388.05H901.673C899.729 1388.05 899.114 1387.44 899.114 1385.59V1320.4C899.114 1318.36 899.828 1317.53 902.088 1317.53H914.98C927.972 1317.53 934.733 1318.66 941.179 1322.64C949.885 1328.06 955.201 1338.71 955.201 1353.15C955.201 1364.83 951.413 1374.46 944.651 1380.59ZM936.361 1330.14C931.543 1326.25 925.313 1325.22 918.352 1325.22H908.634V1380.49H917.439C926.443 1380.49 932.789 1379.56 937.607 1374.76C942.525 1369.74 945.083 1362.28 945.083 1353.06C945.067 1343.24 942.093 1334.74 936.361 1330.14Z" fill="#0083AD"/>
<path d="M1000.17 1389.08C981.849 1389.08 971.117 1375.38 971.117 1353.06C971.117 1330.85 983.294 1316.31 1001.1 1316.31C1019.93 1316.31 1030.28 1331.05 1030.28 1352.33C1030.26 1375.57 1017.27 1389.08 1000.17 1389.08ZM1000.89 1324.21C989.109 1324.21 981.135 1335.87 981.135 1352.76C981.135 1370.67 988.295 1381.32 1000.59 1381.32C1012.15 1381.32 1020.14 1370.26 1020.14 1352.66C1020.13 1334.64 1013.36 1324.21 1000.89 1324.21Z" fill="#0083AD"/>
<path d="M287.325 1449.67L284.351 1458.26C283.936 1459.29 283.537 1459.8 282.823 1459.8C282.407 1459.8 282.009 1459.59 281.494 1459.39C276.061 1456.83 271.874 1455.92 267.056 1455.92C256.407 1455.92 249.563 1464.11 249.563 1479.04C249.563 1495.21 257.338 1502.17 267.372 1502.17C272.19 1502.17 276.377 1501.25 281.195 1499.31C281.809 1499.11 282.324 1498.89 282.723 1498.89C283.653 1498.89 284.152 1499.31 284.567 1500.54L287.126 1508.11C287.341 1508.73 287.441 1509.24 287.441 1509.74C287.441 1510.77 287.026 1511.49 285.597 1512C278.536 1514.66 272.705 1515.99 264.83 1515.99C243.133 1515.99 232.185 1501.55 232.185 1479.56C232.185 1457.44 245.592 1442.09 266.159 1442.09C273.536 1442.09 279.766 1443.52 285.713 1446.18C287.142 1446.79 287.657 1447.51 287.657 1448.22C287.641 1448.64 287.541 1449.15 287.325 1449.67Z" fill="#0083AD"/>
<path d="M327.745 1515.97C307.178 1515.97 295.615 1501.34 295.615 1479.34C295.615 1457.44 307.992 1442.09 328.36 1442.09C349.758 1442.09 360.49 1457.96 360.49 1478.73C360.49 1501.75 346.984 1515.97 327.745 1515.97ZM327.945 1455.9C319.04 1455.9 313.009 1463.77 313.009 1478.93C313.009 1495.09 318.542 1502.15 328.26 1502.15C337.265 1502.15 343.096 1494.89 343.096 1479.02C343.096 1462.56 337.664 1455.9 327.945 1455.9Z" fill="#0083AD"/>
<path d="M438.042 1511.47C438.042 1514.13 436.912 1514.65 435.068 1514.65H426.363C424.519 1514.65 422.99 1513.93 421.861 1512.39L391.358 1471.75H391.159V1511.56C391.159 1513.82 390.129 1514.63 388.086 1514.63H378.566C376.207 1514.63 375.193 1514.11 375.193 1511.66V1446.76C375.193 1444.11 376.423 1443.59 378.566 1443.59H387.172C389.215 1443.59 390.245 1444.21 391.375 1445.73L421.877 1486.67H422.076V1446.55C422.076 1444.29 423.206 1443.57 425.25 1443.57H435.185C437.843 1443.57 438.042 1445 438.042 1446.75V1511.47Z" fill="#0083AD"/>
<path d="M529.116 1443.62C531.16 1443.62 531.775 1444.64 531.675 1445.98L530.761 1454.27C530.562 1456.43 529.233 1456.83 526.774 1456.83H502.003V1472.08H525.229C527.472 1472.08 528.302 1473.21 528.302 1474.84V1482.32C528.302 1484.36 527.272 1485.29 525.345 1485.29H502.003V1501.47H528.718C530.562 1501.47 531.675 1502.29 531.675 1504.23V1511.81C531.675 1513.75 530.761 1514.68 528.817 1514.68H489.111C486.752 1514.68 485.739 1514.07 485.739 1511.51V1446.52C485.739 1444.77 486.653 1443.66 488.397 1443.66H529.116V1443.62Z" fill="#0083AD"/>
<path d="M609.791 1511.47C609.791 1514.13 608.662 1514.65 606.818 1514.65H598.112C596.268 1514.65 594.74 1513.93 593.61 1512.39L563.108 1471.75H562.908V1511.56C562.908 1513.82 561.878 1514.63 559.835 1514.63H550.315C547.956 1514.63 546.943 1514.11 546.943 1511.66V1446.76C546.943 1444.11 548.172 1443.59 550.315 1443.59H558.904C560.948 1443.59 561.978 1444.21 563.108 1445.73L593.61 1486.67H593.809V1446.55C593.809 1444.29 594.939 1443.57 596.982 1443.57H606.917C609.575 1443.57 609.775 1445 609.775 1446.75V1511.47H609.791Z" fill="#0083AD"/>
<path d="M671.211 1443.62C673.255 1443.62 673.869 1444.64 673.77 1445.98L672.856 1454.27C672.656 1456.43 671.327 1456.83 668.869 1456.83H644.081V1472.08H667.307C669.566 1472.08 670.38 1473.21 670.38 1474.84V1482.32C670.38 1484.36 669.367 1485.29 667.407 1485.29H644.081V1501.47H670.796C672.64 1501.47 673.77 1502.29 673.77 1504.23V1511.81C673.77 1513.75 672.856 1514.68 670.895 1514.68H631.189C628.847 1514.68 627.817 1514.07 627.817 1511.51V1446.52C627.817 1444.77 628.731 1443.66 630.475 1443.66H671.211V1443.62Z" fill="#0083AD"/>
<path d="M725.886 1512.4L711.665 1490.61H705.318V1511.79C705.318 1513.43 704.604 1514.66 702.561 1514.66H691.911C689.868 1514.66 689.054 1513.75 689.054 1511.69V1447.11C689.054 1444.35 689.669 1443.64 692.426 1443.64H707.977C716.682 1443.64 727.115 1444.35 733.362 1451.32C737.05 1455.4 738.894 1461.03 738.894 1466.57C738.894 1475.67 735.007 1483.25 726.717 1487.45V1487.65L743.496 1511.59C743.911 1512.2 744.111 1512.82 744.111 1513.33C744.111 1514.25 743.297 1514.66 742.466 1514.66H730.488C728.444 1514.65 727.016 1514.15 725.886 1512.4ZM709.306 1455.9H705.318V1478.41H710.435C717.911 1478.41 722.513 1474.42 722.513 1466.85C722.497 1458.77 716.981 1455.9 709.306 1455.9Z" fill="#0083AD"/>
<path d="M812.94 1507.38C812.94 1509.43 812.625 1510.24 810.481 1511.27C804.334 1514.25 793.802 1515.99 785.096 1515.99C764.529 1515.99 751.421 1501.47 751.421 1479.46C751.421 1457.56 766.057 1442.09 786.425 1442.09C793.901 1442.09 799.633 1443.32 806.577 1446.5C807.906 1447.11 808.122 1447.92 808.122 1448.64C808.122 1449.15 807.906 1449.55 807.823 1449.97L804.75 1457.94C804.335 1459.07 803.72 1459.59 803.005 1459.59C802.49 1459.59 801.876 1459.39 801.261 1459.07C798.287 1457.74 792.556 1456 787.339 1456C782.837 1456 777.82 1457.73 774.646 1461.31C771.174 1465.2 768.815 1470.83 768.815 1478.81C768.815 1495.09 776.789 1502.03 786.209 1502.03C790.196 1502.03 794.499 1501.62 796.643 1501V1485.24H788.751C787.322 1485.24 786.193 1484.32 786.193 1482.58V1474.59C786.193 1472.75 787.223 1472.03 788.95 1472.03H810.033C811.977 1472.03 812.907 1472.75 812.907 1474.79V1507.38H812.94Z" fill="#0083AD"/>
<path d="M858.361 1451.4C858.361 1453.24 857.331 1454.06 855.803 1454.06H850.271V1504.19H855.387C857.032 1504.19 857.846 1505.42 857.846 1506.85V1512.29C857.846 1513.51 857.032 1514.64 855.587 1514.64H829.288C827.759 1514.64 826.729 1513.51 826.729 1512.38V1506.85C826.729 1505.01 827.743 1504.19 829.288 1504.19H833.989V1454.06H828.573C826.945 1454.06 826.115 1452.83 826.115 1451.4V1445.98C826.115 1444.75 826.929 1443.62 828.374 1443.62H855.803C857.331 1443.62 858.361 1444.75 858.361 1445.88V1451.4ZM851.5 1429.09L837.893 1436.86C836.963 1437.38 836.249 1437.67 835.734 1437.67C835.019 1437.67 834.405 1437.26 833.69 1436.23L832.261 1434.29C831.846 1433.77 831.647 1433.35 831.647 1432.96C831.647 1432.44 832.046 1431.83 833.175 1430.9L845.153 1421.58C846.084 1420.86 846.699 1420.45 847.297 1420.45C847.911 1420.45 848.426 1420.96 849.241 1421.97L852.115 1425.86C852.63 1426.48 852.829 1427.09 852.829 1427.51C852.829 1428.17 852.414 1428.59 851.5 1429.09Z" fill="#0083AD"/>
<path d="M934.135 1514.65H922.672C920.213 1514.65 919.299 1513.52 918.685 1511.77L914.598 1499.91H889.312L885.225 1512.19C884.81 1513.52 883.996 1514.65 882.152 1514.65H870.489C869.359 1514.65 868.844 1513.93 868.844 1513.02C868.844 1512.6 868.844 1512.2 869.044 1511.79L893.399 1446.2C894.014 1444.65 894.927 1443.64 896.888 1443.64H907.421C909.464 1443.64 910.594 1444.55 911.109 1445.9L935.979 1511.09C936.195 1511.7 936.278 1512.22 936.278 1512.62C936.278 1513.83 935.564 1514.65 934.135 1514.65ZM910.179 1487.63L903.733 1467.46L901.889 1461.53H901.689C901.174 1463.38 900.559 1465.42 899.845 1467.58L893.399 1487.63H910.179Z" fill="#0083AD"/>
<defs>
<linearGradient id="paint0_linear" x1="108.135" y1="1023.52" x2="1035.1" y2="167.567" gradientUnits="userSpaceOnUse">
<stop stop-color="#009CB8"/>
<stop offset="0.6243" stop-color="#FFEE19"/>
<stop offset="1" stop-color="#FCC128"/>
</linearGradient>
</defs>
</svg>
